<svg id="createList" xmlns="http://www.w3.org/2000/svg" width="23.999" height="24" viewBox="0 0 23.999 24">
  <path id="Path_6" data-name="Path 6" d="M11.894,24a.5.5,0,0,1-.354-.146A.5.5,0,0,1,11.4,23.4l.707-3.535a.49.49,0,0,1,.137-.256l7.778-7.778a1.5,1.5,0,0,1,2.121,0l1.414,1.414a1.5,1.5,0,0,1,0,2.121l-7.778,7.778a.5.5,0,0,1-.256.137l-3.535.707A.531.531,0,0,1,11.894,24Zm1.168-3.789-.53,2.651,2.651-.53,7.671-7.671a.5.5,0,0,0,0-.707L21.44,12.54a.5.5,0,0,0-.707,0Zm2.367,2.582h.01Z"/>
  <path id="Path_7" data-name="Path 7" d="M9.5,21h-7A2.5,2.5,0,0,1,0,18.5V5.5A2.5,2.5,0,0,1,2.5,3h2a.5.5,0,0,1,0,1h-2A1.5,1.5,0,0,0,1,5.5v13A1.5,1.5,0,0,0,2.5,20h7a.5.5,0,0,1,0,1Z"/>
  <path id="Path_8" data-name="Path 8" d="M16.5,12a.5.5,0,0,1-.5-.5v-6A1.5,1.5,0,0,0,14.5,4h-2a.5.5,0,0,1,0-1h2A2.5,2.5,0,0,1,17,5.5v6A.5.5,0,0,1,16.5,12Z"/>
  <path id="Path_9" data-name="Path 9" d="M11.5,6h-6A1.5,1.5,0,0,1,4,4.5v-2A.5.5,0,0,1,4.5,2H6.05a2.5,2.5,0,0,1,4.9,0H12.5a.5.5,0,0,1,.5.5v2A1.5,1.5,0,0,1,11.5,6ZM5,3V4.5a.5.5,0,0,0,.5.5h6a.5.5,0,0,0,.5-.5V3H10.5a.5.5,0,0,1-.5-.5,1.5,1.5,0,0,0-3,0,.5.5,0,0,1-.5.5Z"/>
  <path id="Path_10" data-name="Path 10" d="M13.5,9H3.5a.5.5,0,0,1,0-1h10a.5.5,0,0,1,0,1Z"/>
  <path id="Path_11" data-name="Path 11" d="M13.5,12H3.5a.5.5,0,0,1,0-1h10a.5.5,0,0,1,0,1Z"/>
  <path id="Path_12" data-name="Path 12" d="M13.5,15H3.5a.5.5,0,0,1,0-1h10a.5.5,0,0,1,0,1Z"/>
</svg>
