<svg xmlns="http://www.w3.org/2000/svg" width="6.239" height="24.958" viewBox="0 0 6.239 24.958">
  <g id="more" transform="translate(-144.364)">
    <g id="More_Vertical" transform="translate(144.364)">
      <path id="Path_13" data-name="Path 13" d="M147.484,6.239a3.12,3.12,0,1,0-3.12-3.12A3.12,3.12,0,0,0,147.484,6.239Zm0-4.68a1.56,1.56,0,1,1-1.56,1.56A1.56,1.56,0,0,1,147.484,1.56Z" transform="translate(-144.364)"/>
      <path id="Path_14" data-name="Path 14" d="M147.484,288.727a3.12,3.12,0,1,0,3.12,3.12A3.12,3.12,0,0,0,147.484,288.727Zm0,4.68a1.56,1.56,0,1,1,1.56-1.56A1.559,1.559,0,0,1,147.484,293.407Z" transform="translate(-144.364 -270.009)"/>
      <path id="Path_15" data-name="Path 15" d="M147.484,144.364a3.12,3.12,0,1,0,3.12,3.12A3.12,3.12,0,0,0,147.484,144.364Zm0,4.68a1.56,1.56,0,1,1,1.56-1.56A1.559,1.559,0,0,1,147.484,149.044Z" transform="translate(-144.364 -135.005)"/>
    </g>
  </g>
</svg>
