<svg xmlns="http://www.w3.org/2000/svg" width="32.056" height="32.056" viewBox="0 0 32.056 32.056"><path d="M27.438,0H4.618A4.623,4.623,0,0,0,0,4.618V27.438A4.621,4.621,0,0,0,3.912,32a.266.266,0,0,0,.163.06H27.981a.266.266,0,0,0,.163-.06,4.621,4.621,0,0,0,3.912-4.558V4.618A4.623,4.623,0,0,0,27.438,0Zm.272,31.5c-.09.006-.18.014-.272.014H4.618c-.092,0-.181-.008-.272-.014V25.264A8.407,8.407,0,0,1,11.7,16.914a6.768,6.768,0,0,0,3.14,1.453l.03.005c.178.031.359.055.541.071l.068.005c.18.014.362.024.545.024s.365-.01.545-.024l.068-.005c.183-.016.363-.04.541-.071l.031-.005a6.764,6.764,0,0,0,3.139-1.453,8.407,8.407,0,0,1,7.357,8.351ZM9.78,11.681a6.248,6.248,0,1,1,10.31,4.742h0a6.255,6.255,0,0,1-2.946,1.4l-.027,0c-.17.03-.342.053-.515.07l-.054,0c-.172.014-.346.023-.52.023s-.347-.009-.52-.023l-.054,0q-.259-.024-.515-.07l-.027,0a6.257,6.257,0,0,1-2.946-1.4h0A6.236,6.236,0,0,1,9.78,11.681ZM31.512,27.438a4.082,4.082,0,0,1-3.26,3.993V25.264a8.949,8.949,0,0,0-7.389-8.821,6.791,6.791,0,1,0-9.672,0A8.949,8.949,0,0,0,3.8,25.264V31.43a4.082,4.082,0,0,1-3.26-3.993V4.618A4.08,4.08,0,0,1,4.618.543H27.438a4.08,4.08,0,0,1,4.075,4.075Z"/></svg>